<svg xmlns="http://www.w3.org/2000/svg" width="45" height="45">
  <path d="M32.727 24.23c4.385 0 8.436 1.98 10.629 5.193 2.192 3.213 2.192 7.172 0 10.385C41.163 43.02 37.112 45 32.727 45c-6.778 0-12.272-4.65-12.272-10.385 0-5.735 5.494-10.384 12.272-10.384ZM36.818 0c2.26 0 4.091 1.55 4.091 3.462v17.363h-4.09V3.462H4.09v38.076h12.55V45H4.092C1.83 45 0 43.45 0 41.538V3.462C0 1.55 1.832 0 4.09 0h32.728Zm-4.09 27.692c-4.52 0-8.183 3.1-8.183 6.923 0 3.824 3.664 6.923 8.182 6.923 4.519 0 8.182-3.1 8.182-6.923s-3.663-6.923-8.182-6.923Zm2.045 1.731v3.462h4.09v3.461h-8.181v-6.923h4.09Zm-16.36-3.461v3.461H8.182v-3.461h10.231Zm14.314-8.654v3.461H8.182v-3.461h24.545Zm0-8.654v3.461H8.182V8.654h24.545Z"/>
</svg>
