<svg xmlns="http://www.w3.org/2000/svg" width="45" height="45">
  <path d="M1.233 45A1.238 1.238 0 0 1 0 43.77v-4.058A19.377 19.377 0 0 1 12.23 21.65l1.28-.515-1.087-.853a11.308 11.308 0 0 1-4.344-8.925C8.078 5.096 13.158 0 19.404 0s11.329 5.096 11.329 11.356a11.327 11.327 0 0 1-4.345 8.928l-.733.58c-1.087.974-3.218 1.636-5.992 1.854h-.108l-.142-.004c-.432 0-.877.018-1.336.056l-.486.038-.216.032c-8.51 1.023-14.913 8.28-14.913 16.875v2.821h18.614l.103.21c.282.569.597 1.131.945 1.662l.383.587H1.233V45ZM19.404 2.46c-4.887 0-8.86 3.99-8.86 8.896 0 4.905 3.978 8.898 8.86 8.898 4.887 0 8.865-3.991 8.865-8.898-.002-4.905-3.978-8.897-8.865-8.897Z"/>
  <path d="M19.463 0C13.25 0 8.195 4.923 8.195 10.973c0 3.375 1.58 6.518 4.324 8.624l1.4 1.071-1.652.644C4.813 24.214 0 31.122 0 38.912v3.99c0 .55.464 1 1.033 1h21.172l-.166-.243a15.102 15.102 0 0 1-.97-1.665l-.045-.09H2.061V38.91c0-8.581 6.581-15.817 15.307-16.834l.225-.032.502-.042a18.828 18.828 0 0 1 1.525-.052h.083c2.777-.214 4.887-.844 5.954-1.778l.754-.576c2.75-2.106 4.324-5.249 4.324-8.628C30.733 4.923 25.677 0 19.463 0Zm0 19.953c-5.079 0-9.205-4.028-9.205-8.978 0-4.956 4.13-8.984 9.205-8.984 5.08 0 9.211 4.028 9.211 8.98-.004 4.952-4.135 8.98-9.211 8.98v.002Z"/>
  <path d="M36.49 45a1.794 1.794 0 0 1-1.28-.529c-.353-.369-1.467-1.332-2.335-1.332-.855 0-1.967.945-2.32 1.307-.5.49-1.24.647-1.897.4l-.013-.004-2.981-1.597-.012-.007c-.639-.448-.882-1.246-.58-1.899 0-.004.247-.562.247-1.05 0-1.522-1.289-2.76-2.87-2.76h-.102c-.616 0-1.091-.472-1.242-1.225-.147-.75-.231-1.51-.252-2.273 0-.954.225-2.142.252-2.272.15-.759.617-1.231 1.224-1.231h.12c1.581 0 2.87-1.238 2.87-2.759 0-.447-.209-.95-.247-1.05-.3-.674-.07-1.466.544-1.875l.052-.033 3.083-1.627.01-.002a1.834 1.834 0 0 1 1.94.373c.439.43 1.485 1.251 2.286 1.251 1.01 0 2.26-1.215 2.273-1.228a1.811 1.811 0 0 1 1.885-.38l.014.004 3.035 1.613.009.01c.637.445.887 1.241.585 1.894a3.01 3.01 0 0 0-.252 1.05c0 1.52 1.29 2.759 2.869 2.759h.103c.615 0 1.09.472 1.238 1.226.045.216.254 1.35.254 2.273 0 .922-.207 2.056-.252 2.272-.15.758-.621 1.23-1.222 1.23h-.121c-1.58 0-2.869 1.238-2.869 2.76 0 .42.171.872.248 1.046.3.673.07 1.466-.545 1.874l-.054.034-2.992 1.59-.012.005c-.213.109-.45.165-.69.162Zm-3.615-3.976c.78 0 1.618.315 2.49.94.29.212.568.44.829.682l.132.124 2.41-1.282-.06-.192a4.084 4.084 0 0 1-.241-1.302c0-2.154 1.676-3.992 3.892-4.269l.185-.022.024-.173c.068-.414.147-1.01.147-1.49 0-.477-.08-1.073-.147-1.492l-.024-.173-.183-.022c-2.218-.277-3.892-2.115-3.892-4.269 0-.501.126-.983.238-1.302l.061-.187-2.385-1.274-.13.12a7.585 7.585 0 0 1-.815.634c-.85.576-1.663.869-2.41.869-.758 0-1.575-.297-2.432-.887a7.62 7.62 0 0 1-.823-.652l-.131-.117-2.475 1.305.06.189c.113.315.242.8.242 1.298 0 2.153-1.674 3.994-3.893 4.27l-.184.02-.025.176c-.068.412-.146 1.004-.146 1.49 0 .481.078 1.07.146 1.49l.025.172.182.023c2.22.277 3.892 2.115 3.892 4.268 0 .506-.126.99-.238 1.307l-.06.185 2.317 1.246.132-.123c.259-.24.532-.461.82-.664.872-.608 1.7-.916 2.47-.916Z"/>
  <path d="M44.76 31.754c-.127-.666-.505-1.08-.995-1.08h-.1a3.022 3.022 0 0 1-3.007-3.03c0-.547.258-1.15.263-1.16.254-.573.045-1.275-.495-1.671l-2.93-1.634a1.505 1.505 0 0 0-1.597.338c-.014.013-1.283 1.32-2.363 1.32s-2.362-1.327-2.376-1.34a1.516 1.516 0 0 0-1.649-.331l-2.981 1.651-.038.025a1.375 1.375 0 0 0-.457 1.652c.06.146.259.672.259 1.154 0 1.672-1.35 3.033-3.006 3.033h-.117c-.48 0-.855.412-.98 1.075-.006.054-.24 1.3-.24 2.277 0 .961.216 2.145.24 2.28.127.666.505 1.077.998 1.077h.099c1.658 0 3.006 1.36 3.006 3.031 0 .558-.264 1.161-.264 1.161-.254.574-.045 1.276.495 1.672l2.874 1.615c.557.216 1.19.074 1.602-.36.013-.013 1.318-1.404 2.416-1.404 1.116 0 2.417 1.418 2.43 1.43.259.287.675.465 1.085.465.202 0 .375-.038.598-.14l2.896-1.615.038-.025c.52-.376.707-1.063.452-1.651a3.36 3.36 0 0 1-.258-1.155c0-1.674 1.35-3.033 3.006-3.033h.117c.479 0 .855-.411.978-1.075.039-.218.241-1.35.241-2.282 0-.915-.202-2.054-.24-2.272v.002Zm-1.738 3.83-.051.337-.338.045c-2.052.27-3.602 2.05-3.602 4.142 0 .484.119.952.218 1.26l.122.36-2.642 1.474-.24-.238a7.852 7.852 0 0 0-.78-.675c-.81-.608-1.585-.916-2.292-.916-.702 0-1.47.304-2.272.9a7.506 7.506 0 0 0-.777.66l-.24.24-2.552-1.44.117-.36c.1-.308.225-.776.225-1.262 0-2.09-1.548-3.87-3.6-4.145l-.337-.045-.052-.337a11.383 11.383 0 0 1-.146-1.553c0-.51.076-1.125.146-1.552l.052-.338.337-.045c2.048-.27 3.6-2.047 3.6-4.142 0-.484-.121-.952-.22-1.26l-.122-.36 2.7-1.496.243.231c.243.232.504.448.779.644.798.571 1.548.86 2.24.86.685 0 1.43-.284 2.219-.849.272-.19.529-.401.77-.63l.243-.225 2.61 1.46-.117.36a4.29 4.29 0 0 0-.221 1.265c0 2.088 1.548 3.87 3.6 4.142l.342.045.052.338c.065.43.146 1.05.146 1.554a13.94 13.94 0 0 1-.157 1.553l-.003-.002Z"/>
  <path d="M32.927 38.414a4.396 4.396 0 0 1-4.39-4.39 4.396 4.396 0 0 1 4.39-4.39 4.394 4.394 0 0 1 4.39 4.39 4.394 4.394 0 0 1-4.388 4.39h-.002Zm0-6.682a2.297 2.297 0 0 0-2.295 2.292 2.299 2.299 0 0 0 2.295 2.295 2.299 2.299 0 0 0 2.295-2.295 2.299 2.299 0 0 0-2.295-2.295v.003Z"/>
  <path d="M33.476 29.632a3.843 3.843 0 1 0 3.84 3.841 3.847 3.847 0 0 0-3.84-3.838v-.003Zm0 6.172a2.325 2.325 0 1 1 .002-4.65 2.325 2.325 0 0 1-.002 4.65Z"/>
</svg>
