<svg xmlns="http://www.w3.org/2000/svg" width="45" height="45">
  <path d="M22.5 0C9.885 0 0 3.707 0 8.438v28.124C0 41.294 9.885 45 22.5 45S45 41.293 45 36.562V8.439C45 3.707 35.115 0 22.5 0Zm20.25 36.563c0 3.103-8.316 6.562-20.25 6.562s-20.25-3.46-20.25-6.563v-5.658c3.607 2.816 11.216 4.721 20.25 4.721 9.033 0 16.643-1.905 20.25-4.721v5.659Zm0-9.376c0 3.104-8.316 6.563-20.25 6.563S2.25 30.29 2.25 27.187V21.53c3.607 2.816 11.216 4.721 20.25 4.721 9.033 0 16.643-1.905 20.25-4.721v5.658Zm0-9.374c0 3.103-8.316 6.562-20.25 6.562s-20.25-3.46-20.25-6.562v-5.66c3.607 2.817 11.216 4.722 20.25 4.722 9.033 0 16.643-1.905 20.25-4.721v5.659ZM22.5 15C10.566 15 2.25 11.54 2.25 8.437c0-3.103 8.316-6.562 20.25-6.562s20.25 3.46 20.25 6.563C42.75 11.54 34.434 15 22.5 15Z"/>
</svg>
