<svg xmlns="http://www.w3.org/2000/svg" width="45" height="45">
  <path d="M44.989 27.619c-.019.5-.587 1.06-1.753 1.772-2.4 1.459-14.843 7.429-17.49 9.04-2.65 1.61-4.12 1.594-6.212.426-2.093-1.166-15.33-7.408-17.715-8.735C.629 29.457.02 28.897 0 28.367v5.307c0 .53.626 1.092 1.819 1.757C4.204 36.76 17.443 43 19.534 44.166c2.092 1.168 3.562 1.183 6.212-.429 2.647-1.61 15.088-7.578 17.49-9.039 1.22-.742 1.762-1.32 1.762-1.842v-5.233l-.01-.004Z"/>
  <path d="M44.987 18.967c-.019.501-.587 1.059-1.751 1.77-2.4 1.459-14.843 7.429-17.49 9.039-2.65 1.61-4.12 1.595-6.212.429-2.093-1.166-15.33-7.408-17.715-8.738C.629 20.805.02 20.242 0 19.715v5.307c0 .53.626 1.09 1.819 1.755 2.385 1.33 15.622 7.569 17.715 8.735 2.092 1.168 3.562 1.183 6.212-.427 2.647-1.61 15.088-7.58 17.49-9.039 1.22-.744 1.762-1.321 1.762-1.844v-5.233l-.011-.002Z"/>
  <path d="M44.987 9.993c.022-.533-.576-1.001-1.78-1.518-2.34-1-14.705-6.742-17.073-7.755-2.368-1.01-3.332-.969-6.113.197C17.235 2.08 4.07 8.106 1.727 9.173.555 9.711-.017 10.208 0 10.737v5.31c0 .529.627 1.089 1.82 1.754 2.385 1.33 15.622 7.571 17.715 8.737 2.092 1.166 3.562 1.182 6.211-.428 2.648-1.61 15.089-7.58 17.49-9.04C44.459 16.327 45 15.75 45 15.226V9.993h-.015.002Zm-28.873 5.025L26.54 13.15l-3.15 5.388-7.275-3.52h-.002Zm23.062-4.852L33.01 13.01l-.669.306-6.163-2.843 6.829-3.15 6.168 2.843h.002ZM21.071 4.953l-1.009-2.17 3.147 1.435 2.966-1.133-.803 2.242 3.023 1.322-3.898.472-.874 2.45-1.41-2.732-4.5-.473 3.358-1.413Zm-7.768 3.063c3.079 0 5.573 1.127 5.573 2.518 0 1.391-2.494 2.52-5.573 2.52s-5.574-1.131-5.574-2.52c0-1.391 2.495-2.52 5.574-2.52v.002Z"/>
</svg>
