<svg xmlns="http://www.w3.org/2000/svg" width="45" height="45">
  <path d="M42.629 45h-7.105c-1.307 0-2.369-.957-2.369-2.141v-4.287c0-1.18 1.062-2.142 2.37-2.142h4.735V25.715H23.682V36.43h2.367c1.309 0 2.369.961 2.369 2.142v4.287c0 1.184-1.06 2.141-2.37 2.141h-7.104c-1.307 0-2.366-.957-2.366-2.141v-4.287c0-1.18 1.06-2.142 2.366-2.142h2.372V25.715H4.736V36.43H9.47c1.31 0 2.369.961 2.369 2.142v4.287c0 1.184-1.06 2.141-2.37 2.141H2.37C1.059 45 0 44.043 0 42.859v-4.287c0-1.18 1.06-2.142 2.369-2.142V23.574h18.947v-8.572H14.21c-1.31 0-2.369-.959-2.369-2.143V2.143C11.842.961 12.902 0 14.212 0h16.577c1.31 0 2.366.959 2.366 2.143v10.714c0 1.182-1.057 2.143-2.366 2.143h-7.105v8.572h18.947v12.856c1.307 0 2.369.961 2.369 2.142v4.287C44.998 44.043 43.933 45 42.629 45Zm-40.26-6.428v4.287H9.47v-4.287H2.369Zm28.417-25.713V2.143H14.21v10.714h16.577v.002ZM18.944 38.572v4.287h7.105v-4.287h-7.105Zm23.685 0h-7.105v4.287h7.105v-4.287Z"/>
</svg>
