<svg xmlns="http://www.w3.org/2000/svg" width="45" height="45">
  <path d="M2.387 22.11c1.039-.003 1.96.623 2.28 1.548.319.926-.04 1.938-.885 2.503l-.052.03v6.356l18.656 9.758 18.64-9.506.003-4.083.01-.093c.033-.316.193-.61.447-.82.251-.215.58-.333.92-.33.377 0 .71.127.976.376.213.202.343.439.386.708l.019.208v4.473c0 .647-.27 1.156-.779 1.482l-.234.13-19.49 9.94a2.043 2.043 0 0 1-1.54.107l-.29-.118-19.47-10.183c-.561-.253-.94-.763-.997-1.344l-.015-.268V26.14l-.074-.046a2.23 2.23 0 0 1-.822-1.176l-.055-.28-.022-.29c0-1.236 1.068-2.236 2.387-2.236v-.003ZM22.99 11.439l.29.086.34.145 9.982 5.704c.695.376 1.053.968 1.053 1.734a1.835 1.835 0 0 1-.586 1.398l-.217.174-.247.156-2.859 1.624 3.236 1.858c.402.211.698.562.825.976l.058.258.019.274c0 .52-.201.962-.587 1.309l-.21.165-.068.043L23.5 33.31a1.763 1.763 0 0 1-1.744.139l-.241-.13-10.492-5.953c-.58-.304-.93-.886-.908-1.508 0-.52.201-.962.587-1.31l.21-.164.062-.04 3.3-1.896-2.831-1.61a1.917 1.917 0 0 1-.942-1.043l-.074-.274-.037-.295v-.121c0-.56.192-1.032.587-1.399l.216-.176.244-.153 10.004-5.693a2.087 2.087 0 0 1 1.55-.245Zm-6.067 12.517-3.276 1.879 8.852 5.022 8.85-5.02-3.255-1.866-4.49 2.554a2.02 2.02 0 0 1-1.803.174l-.256-.116-4.622-2.63v.003Zm5.62-9.876-8.835 5.025 8.813 5.013 8.815-5.013-8.399-4.797-.006.009-.043-.038-.346-.2ZM23.141.106l.29.118L42.9 10.407c.562.253.94.763.998 1.344l.015.269v6.027l.053.03c.478.308.819.77.96 1.297l.055.268.019.278c0 1.036-.762 1.935-1.84 2.173-1.077.238-2.187-.25-2.682-1.176-.495-.927-.243-2.05.607-2.714l.07-.055v-5.692L22.5 2.689l-18.65 9.51v4.143l-.006.035c-.033.317-.193.61-.448.82a1.39 1.39 0 0 1-.92.33 1.388 1.388 0 0 1-.975-.376 1.228 1.228 0 0 1-.386-.708l-.019-.208v-4.473c0-.647.269-1.156.778-1.482l.235-.13L21.62.204a2.023 2.023 0 0 1 1.522-.101v.003Z"/>
</svg>
